# xmcd
#
# Track frame offsets:
# 150
# 20695
# 29608
# 41682
# 58384
# 72813
# 87126
# 102399
# 114595
# 136216
# 156362
# 172598
# 185489
# 198363
#
# Disc length: 2861 seconds
#
#
# Revision: 0
# Processed by: cddbd v1.5.2PL0 Copyright (c) Steve Scherf et al.
# Submitted via: FreeRIP 2.945 
#
DISCID=c00b2b0e
DTITLE=Prison Love - A Night In The Box
DYEAR=2007
DGENRE=Bluegrass
TTITLE0=Lacassine Special
TTITLE1=Rockingham Cindy
TTITLE2=Georgia Railroad
TTITLE3=Single Girl, Married Girl
TTITLE4=La Danse De Mardi Gras
TTITLE5=Tater Patch
TTITLE6=Wild Bill Jones
TTITLE7=I'm Going Home
TTITLE8=The Auld Triangle
TTITLE9=Sugar Hill
TTITLE10=Les Tracas De Todd Balfa
TTITLE11=I Am The Man Thomas
TTITLE12=Hop High, My Lulu Gal
TTITLE13='Tit Galop Pour Mamou
EXTD=
EXTT0=
EXTT1=
EXTT2=
EXTT3=
EXTT4=
EXTT5=
EXTT6=
EXTT7=
EXTT8=
EXTT9=
EXTT10=
EXTT11=
EXTT12=
EXTT13=
PLAYORDER=
